# File created by Blade
# Date/Time:  Wed Apr 08 17:12:22 2015
#---------------------------------------------------------
:version 1.10
:name HOM
:units
  mass 1.0
  length 1.000000
  angle deg
:documentation
     Acclaim Skeleton File
:root
   axis xyz
   order TX TY TZ RX RY RZ
   position 0.000000 0.000000 0.000000
   orientation 0 0 0
:bonedata
   begin
      id 1
      name Spine_dum
      direction 0.000000 1.000000 0.000000
      length 5.893853
      axis 0.0 0.0 0.0 xyz
   end
   begin
      id 2
      name LeftUpLeg_dum
      direction 1.000000 0.000000 0.000000
      length 3.697939
      axis 0.0 0.0 0.0 xyz
   end
   begin
      id 3
      name RightUpLeg_dum
      direction -1.000000 0.000000 0.000000
      length 3.697939
      axis 0.0 0.0 0.0 xyz
   end
   begin
      id 4
      name Spine
      direction 0.000000 1.000000 0.000000
      length 0.000000
      axis 0.0 0.0 0.0 xyz
      dof rx ry rz
   end
   begin
      id 5
      name Spine_dum1
      direction 0.000000 1.000000 0.000000
      length 16.447146
      axis 0.0 0.0 0.0 xyz
   end
   begin
      id 6
      name Spine_dum2
      direction 0.000000 1.000000 0.000000
      length 10.900383
      axis 0.0 0.0 0.0 xyz
   end
   begin
      id 7
      name Spine_dum3
      direction 0.000000 1.000000 0.000000
      length 10.900383
      axis 0.0 0.0 0.0 xyz
   end
   begin
      id 8
      name Head
      direction 0.000000 1.000000 0.000000
      length 4.527550
      axis 0.0 0.0 0.0 xyz
      dof rx ry rz
   end
   begin
      id 9
      name LeftShoulder
      direction 1.000000 0.000000 0.000000
      length 8.219464
      axis 0.0 0.0 -90.0 xyz
      dof rx ry rz
   end
   begin
      id 10
      name LeftArm
      direction 1.000000 0.000000 0.000000
      length 11.094937
      axis 0.0 0.0 -90.0 xyz
      dof rx ry rz
   end
   begin
      id 11
      name LeftForeArm
      direction 1.000000 0.000000 0.000000
      length 9.103875
      axis 0.0 0.0 -90.0 xyz
      dof ry rz rx
   end
   begin
      id 12
      name LeftHand
      direction 0.000000 0.000000 0.000000
      length 0.000000
      axis 0.0 0.0 -90.0 xyz
      dof rx ry rz
   end
   begin
      id 13
      name LeftHand_dum1
      direction 0.000000 0.000000 0.000000
      length 0.000000
      axis 0.0 0.0 -90.0 xyz
   end
   begin
      id 14
      name LeftHand_dum2
      direction 1.000000 0.000000 0.000000
      length 3.937000
      axis 0.0 0.0 -90.0 xyz
   end
   begin
      id 15
      name LeftHandThumb1
      direction 0.000000 0.000000 1.000000
      length 3.937000
      axis 0.0 0.0 -90.0 xyz
      dof rx rz ry
   end
   begin
      id 16
      name RightShoulder
      direction -1.000000 0.000000 0.000000
      length 8.219464
      axis 0.0 0.0 90.0 xyz
      dof rx ry rz
   end
   begin
      id 17
      name RightArm
      direction -1.000000 0.000000 0.000000
      length 11.094937
      axis 0.0 0.0 90.0 xyz
      dof rx ry rz
   end
   begin
      id 18
      name RightForeArm
      direction -1.000000 0.000000 0.000000
      length 9.103875
      axis 0.0 0.0 90.0 xyz
      dof ry rz rx
   end
   begin
      id 19
      name RightHand
      direction 0.000000 0.000000 0.000000
      length 0.000000
      axis 0.0 0.0 90.0 xyz
      dof rx ry rz
   end
   begin
      id 20
      name RightHand_dum1
      direction 0.000000 0.000000 0.000000
      length 0.000000
      axis 0.0 0.0 90.0 xyz
   end
   begin
      id 21
      name RightHand_dum2
      direction -1.000000 0.000000 0.000000
      length 3.937000
      axis 0.0 0.0 90.0 xyz
   end
   begin
      id 22
      name RightHandThumb1
      direction 0.000000 0.000000 1.000000
      length 3.937000
      axis 0.0 0.0 90.0 xyz
      dof rx rz ry
   end
   begin
      id 23
      name LeftUpLeg
      direction 0.000000 -1.000000 0.000000
      length 16.181467
      axis 0.0 0.0 0.0 xyz
      dof rx ry rz
   end
   begin
      id 24
      name LeftLeg
      direction 0.000000 -1.000000 0.000000
      length 16.501392
      axis 0.0 0.0 0.0 xyz
      dof rx ry rz
   end
   begin
      id 25
      name LeftFoot
      direction 0.000000 -0.258819 0.965926
      length 6.408245
      axis 15.0 0.0 0.0 xyz
      dof rx ry rz
   end
   begin
      id 26
      name LeftToeBase
      direction 0.000000 0.000000 1.000000
      length 2.952750
      axis 0.0 0.0 0.0 xyz
      dof rx ry rz
   end
   begin
      id 27
      name RightUpLeg
      direction 0.000000 -1.000000 0.000000
      length 16.181467
      axis 0.0 0.0 0.0 xyz
      dof rx ry rz
   end
   begin
      id 28
      name RightLeg
      direction 0.000000 -1.000000 0.000000
      length 16.501392
      axis 0.0 0.0 0.0 xyz
      dof rx ry rz
   end
   begin
      id 29
      name RightFoot
      direction 0.000000 -0.258819 0.965926
      length 6.408245
      axis 15.0 0.0 0.0 xyz
      dof rx ry rz
   end
   begin
      id 30
      name RightToeBase
      direction 0.000000 0.000000 1.000000
      length 2.952750
      axis 0.0 0.0 0.0 xyz
      dof rx ry rz
   end
:hierarchy
   begin
      root Spine_dum LeftUpLeg_dum RightUpLeg_dum
      Spine_dum Spine
      LeftUpLeg_dum LeftUpLeg
      RightUpLeg_dum RightUpLeg
      Spine Spine_dum1 Spine_dum2 Spine_dum3
      Spine_dum1 Head
      Spine_dum2 LeftShoulder
      Spine_dum3 RightShoulder
      LeftShoulder LeftArm
      LeftArm LeftForeArm
      LeftForeArm LeftHand
      LeftHand LeftHand_dum1 LeftHand_dum2
      LeftHand_dum1 LeftHandThumb1
      RightShoulder RightArm
      RightArm RightForeArm
      RightForeArm RightHand
      RightHand RightHand_dum1 RightHand_dum2
      RightHand_dum1 RightHandThumb1
      LeftUpLeg LeftLeg
      LeftLeg LeftFoot
      LeftFoot LeftToeBase
      RightUpLeg RightLeg
      RightLeg RightFoot
      RightFoot RightToeBase
   end

# File created by Blade
# Date/Time:  Wed Apr 08 17:12:12 2015
# Frame Rate: 120.000 fps
#------------------------------------------------------
:FULLY-SPECIFIED
:DEGREES
55
root 4.180954 36.428929 1.331939 14.379140 -77.957404 8.508891
Spine -20.865953 -0.043526 -2.717170
Head 7.821416 9.092498 5.295952
LeftShoulder -5.535926 13.458892 28.731424
LeftArm 13.997283 -38.322507 -39.693670
LeftForeArm 12.455930 -0.000000 7.226091
LeftHand -11.393097 -0.000000 -11.842345
LeftHandThumb1 -26.253704 0.000000 33.147579
RightShoulder -27.084701 -45.014098 -5.121170
RightArm 58.304966 43.971191 64.067926
RightForeArm 6.536400 -0.000000 3.080554
RightHand 0.828314 -0.000000 6.111554
RightHandThumb1 -24.326973 -0.000000 -32.862282
LeftUpLeg -28.393750 17.511011 -13.769859
LeftLeg 11.257414 -0.000000 -0.000000
LeftFoot -10.590444 18.764644 -9.375699
LeftToeBase 7.255675 -0.000000 -0.000000
RightUpLeg -32.556834 -13.812146 -2.111640
RightLeg 30.285608 -0.000000 -0.000000
RightFoot -14.133654 -9.601997 24.263258
RightToeBase 3.862199 -0.000000 -0.000000
56
root 4.183930 36.423083 1.416229 14.715460 -77.737119 7.954387
Spine -20.628659 -0.139985 -2.691856
Head 7.829168 8.881695 5.391885
LeftShoulder -5.510519 13.403170 28.762442
LeftArm 13.913855 -38.359160 -39.620016
LeftForeArm 12.519292 -0.000000 7.133982
LeftHand -11.434939 -0.000000 -11.844422
LeftHandThumb1 -26.253704 0.000000 33.147579
RightShoulder -27.099402 -44.973218 -5.081894
RightArm 58.113867 43.945489 63.905891
RightForeArm 6.615441 -0.000000 3.142249
RightHand 0.869857 -0.000000 6.072989
RightHandThumb1 -24.326973 -0.000000 -32.862282
LeftUpLeg -28.109918 17.384771 -13.663532
LeftLeg 11.226663 -0.000000 -0.000000
LeftFoot -10.688175 18.668508 -9.338045
LeftToeBase 7.262870 -0.000000 -0.000000
RightUpLeg -33.145399 -14.161968 -2.198192
RightLeg 31.818603 -0.000000 -0.000000
RightFoot -13.507511 -9.230748 24.490749
RightToeBase 2.940101 -0.000000 -0.000000
57
root 4.190276 36.417318 1.496631 15.083130 -77.510751 7.401026
Spine -20.427129 -0.310638 -2.640540
Head 7.852889 8.796328 5.526569
LeftShoulder -5.535339 13.392384 28.771652
LeftArm 13.835996 -38.398371 -39.537928
LeftForeArm 12.524607 -0.000000 7.046825
LeftHand -11.505848 0.000000 -11.861434
LeftHandThumb1 -26.253704 0.000000 33.147579
RightShoulder -27.053908 -44.964996 -5.069600
RightArm 58.045322 43.923382 63.827974
RightForeArm 6.621454 -0.000000 3.188568
RightHand 0.801250 -0.000000 5.870178
RightHandThumb1 -24.326973 -0.000000 -32.862282
LeftUpLeg -27.880773 17.239825 -13.561254
LeftLeg 11.223018 -0.000000 -0.000000
LeftFoot -10.793860 18.591386 -9.302361
LeftToeBase 7.269902 -0.000000 -0.000000
RightUpLeg -33.805662 -14.490584 -2.278162
RightLeg 33.390288 -0.000000 -0.000000
RightFoot -12.816585 -8.877574 24.759483
RightToeBase 2.007607 -0.000000 -0.000000
58
root 4.194896 36.408002 1.575275 15.310197 -77.240875 6.941526
Spine -20.156203 -0.463742 -2.622876
Head 7.836690 8.603096 5.625524
LeftShoulder -5.511788 13.386794 28.786352
LeftArm 13.796892 -38.432411 -39.469842
LeftForeArm 12.500597 -0.000000 6.963568
LeftHand -11.475702 -0.000000 -11.715500
LeftHandThumb1 -26.253704 0.000000 33.147579
RightShoulder -27.100220 -44.918630 -4.998444
RightArm 57.992569 43.932829 63.807627
RightForeArm 6.637837 -0.000000 3.245905
RightHand 0.879169 -0.000000 5.894981
RightHandThumb1 -24.326973 -0.000000 -32.862282
LeftUpLeg -27.606497 17.107407 -13.462422
LeftLeg 11.233785 -0.000000 -0.000000
LeftFoot -10.908269 18.491169 -9.265272
LeftToeBase 7.274153 -0.000000 -0.000000
RightUpLeg -34.453000 -14.843358 -2.393651
RightLeg 35.036960 -0.000000 -0.000000
RightFoot -12.091447 -8.525425 25.034948
RightToeBase 1.161302 -0.000000 -0.000000
59
root 4.202662 36.398644 1.652957 15.538421 -77.056025 6.525544
Spine -19.942805 -0.588170 -2.629044
Head 7.846975 8.471559 5.753669
LeftShoulder -5.543551 13.384611 28.804798
LeftArm 13.777214 -38.510293 -39.441723
LeftForeArm 12.551997 -0.000000 6.935472
LeftHand -11.585651 0.000000 -11.665295
LeftHandThumb1 -26.253704 0.000000 33.147579
RightShoulder -27.082784 -44.875978 -4.980064
RightArm 58.112635 44.009338 64.032343
RightForeArm 6.452414 -0.000000 3.275826
RightHand 0.762229 0.000000 5.849238
RightHandThumb1 -24.326973 -0.000000 -32.862282
LeftUpLeg -27.444165 17.150546 -13.462757
LeftLeg 11.313856 -0.000000 -0.000000
LeftFoot -10.988956 18.297017 -9.104728
LeftToeBase 7.187734 -0.000000 -0.000000
RightUpLeg -35.198072 -15.073059 -2.537347
RightLeg 36.729622 -0.000000 -0.000000
RightFoot -11.263520 -8.279327 25.131490
RightToeBase 0.271830 -0.000000 -0.000000
60
root 4.215798 36.389912 1.727842 15.702395 -76.811146 6.233470
Spine -19.780440 -0.731451 -2.667405
Head 7.838917 8.254913 5.884501
LeftShoulder -5.498188 13.330427 28.856437
LeftArm 13.697167 -38.534966 -39.393063
LeftForeArm 12.491802 -0.000000 6.907736
LeftHand -11.578452 0.000000 -11.522118
LeftHandThumb1 -26.253704 0.000000 33.147579
RightShoulder -27.143142 -44.911578 -4.875190
RightArm 57.965102 43.943352 63.873794
RightForeArm 6.667573 -0.000000 3.368178
RightHand 0.876653 -0.000000 5.934648
RightHandThumb1 -24.326973 -0.000000 -32.862282
LeftUpLeg -27.217359 16.797831 -13.341405
LeftLeg 11.259250 -0.000000 -0.000000
LeftFoot -11.047329 18.364535 -9.041763
LeftToeBase 7.124628 -0.000000 -0.000000
RightUpLeg -36.024806 -15.343623 -2.673820
RightLeg 38.420697 -0.000000 -0.000000
RightFoot -10.424428 -8.099679 25.365336
RightToeBase -0.440643 -0.000000 0.000000
61
root 4.230135 36.380310 1.796316 15.971902 -76.556574 5.849091
Spine -19.635512 -0.932087 -2.661758
Head 7.846576 8.142404 5.998316
LeftShoulder -5.521861 13.334895 28.873038
LeftArm 13.646824 -38.548186 -39.337611
LeftForeArm 12.475743 -0.000000 6.940252
LeftHand -11.564534 0.000000 -11.535475
LeftHandThumb1 -26.253704 0.000000 33.147579
RightShoulder -27.101235 -44.868812 -4.860069
RightArm 57.875908 43.933107 63.862427
RightForeArm 6.702991 -0.000000 3.492006
RightHand 0.932698 0.000000 5.832902
RightHandThumb1 -24.326973 -0.000000 -32.862282
LeftUpLeg -27.094542 16.642046 -13.285000
LeftLeg 11.294646 -0.000000 -0.000000
LeftFoot -11.124946 18.260298 -8.954290
LeftToeBase 7.046861 -0.000000 -0.000000
RightUpLeg -36.889828 -15.576068 -2.777418
RightLeg 40.125961 -0.000000 -0.000000
RightFoot -9.550046 -8.020868 25.446282
RightToeBase -0.940615 -0.000000 0.000000
62
root 4.241404 36.368954 1.865121 16.210766 -76.303035 5.463399
Spine -19.462994 -1.106836 -2.655809
Head 7.861611 7.981908 6.101072
LeftShoulder -5.545123 13.407730 28.882494
LeftArm 13.686582 -38.511516 -39.348014
LeftForeArm 12.348926 0.000000 7.006183
LeftHand -11.648904 -0.000000 -11.311469
LeftHandThumb1 -26.253704 0.000000 33.147579
RightShoulder -27.107540 -44.845486 -4.812435
RightArm 57.851330 43.919721 63.874653
RightForeArm 6.702907 -0.000000 3.546510
RightHand 0.861744 -0.000000 5.859179
RightHandThumb1 -24.326973 -0.000000 -32.862282
LeftUpLeg -26.952788 16.543331 -13.226979
LeftLeg 11.369896 -0.000000 -0.000000
LeftFoot -11.199189 18.082986 -8.760003
LeftToeBase 7.014399 -0.000000 -0.000000
RightUpLeg -37.727708 -15.818943 -2.873667
RightLeg 41.826052 -0.000000 -0.000000
RightFoot -8.669132 -7.963193 25.493379
RightToeBase -1.178068 -0.000000 0.000000
63
root 4.255136 36.359353 1.931573 16.456620 -76.096876 5.108868
Spine -19.336368 -1.208030 -2.678384
Head 7.888759 7.786456 6.172430
LeftShoulder -5.512805 13.397763 28.883403
LeftArm 13.641625 -38.481387 -39.291912
LeftForeArm 12.223380 -0.000000 7.106703
LeftHand -11.717520 -0.000000 -11.225015
LeftHandThumb1 -26.253704 0.000000 33.147579
RightShoulder -27.174977 -44.886706 -4.684782
RightArm 57.761708 43.865060 63.752516
RightForeArm 6.794946 -0.000000 3.641749
RightHand 0.828303 -0.000000 5.808361
RightHandThumb1 -24.326973 -0.000000 -32.862282
LeftUpLeg -26.866395 16.505642 -13.217341
LeftLeg 11.427821 -0.000000 -0.000000
LeftFoot -11.311487 17.928772 -8.715073
LeftToeBase 7.050886 -0.000000 -0.000000
RightUpLeg -38.632162 -16.002345 -2.969116
RightLeg 43.523787 -0.000000 -0.000000
RightFoot -7.822653 -7.991825 25.577278
RightToeBase -1.035308 -0.000000 0.000000
64
root 4.268576 36.350749 1.997037 16.754207 -75.898836 4.738945
Spine -19.265787 -1.301240 -2.684144
Head 7.935090 7.602487 6.241391
LeftShoulder -5.489721 13.382481 28.880055
LeftArm 13.609113 -38.501317 -39.310271
LeftForeArm 12.243312 -0.000000 7.305098
LeftHand -11.787311 -0.000000 -11.068555
LeftHandThumb1 -26.253704 0.000000 33.147579
RightShoulder -27.258493 -44.954191 -4.574715
RightArm 57.757524 43.824664 63.760421
RightForeArm 6.765302 -0.000000 3.743429
RightHand 0.831871 -0.000000 5.745544
RightHandThumb1 -24.326973 -0.000000 -32.862282
LeftUpLeg -26.815023 16.455414 -13.207681
LeftLeg 11.479152 -0.000000 -0.000000
LeftFoot -11.421298 17.804722 -8.685997
LeftToeBase 7.033473 -0.000000 -0.000000
RightUpLeg -39.601576 -16.213106 -3.019992
RightLeg 45.235517 -0.000000 -0.000000
RightFoot -7.022333 -8.058976 25.498805
RightToeBase -0.411371 -0.000000 0.000000
65
root 4.280623 36.343778 2.059050 17.176777 -75.642707 4.237550
Spine -19.202436 -1.455075 -2.616935
Head 8.025943 7.468329 6.275890
LeftShoulder -5.497378 13.448666 28.834689
LeftArm 13.657592 -38.399031 -39.321511
LeftForeArm 12.139131 -0.000000 7.437004
LeftHand -11.868046 -0.000000 -10.876833
LeftHandThumb1 -26.253704 0.000000 33.147579
RightShoulder -27.279213 -44.990157 -4.488717
RightArm 57.704475 43.816319 63.713249
RightForeArm 6.790259 -0.000000 3.865686
RightHand 0.910719 0.000000 5.679470
RightHandThumb1 -24.326973 -0.000000 -32.862282
LeftUpLeg -26.757662 16.330382 -13.125479
LeftLeg 11.548198 -0.000000 -0.000000
LeftFoot -11.507402 17.696108 -8.611259
LeftToeBase 6.990756 -0.000000 -0.000000
RightUpLeg -40.558920 -16.455306 -3.016610
RightLeg 46.942251 -0.000000 -0.000000
RightFoot -6.358387 -8.119987 25.529228
RightToeBase 0.610698 -0.000000 -0.000000
66
root 4.292293 36.339756 2.118370 17.595910 -75.433793 3.777622
Spine -19.185495 -1.547934 -2.583588
Head 8.113989 7.298512 6.288454
LeftShoulder -5.490512 13.474365 28.783503
LeftArm 13.641373 -38.292397 -39.322786
LeftForeArm 12.088381 0.000000 7.720278
LeftHand -11.965081 -0.000000 -10.628859
LeftHandThumb1 -26.253704 0.000000 33.147579
RightShoulder -27.332983 -44.983318 -4.378323
RightArm 57.531577 43.711960 63.481849
RightForeArm 6.862313 -0.000000 3.951954
RightHand 0.875825 -0.000000 5.597229
RightHandThumb1 -24.326973 -0.000000 -32.862282
LeftUpLeg -26.741701 16.222515 -13.059585
LeftLeg 11.616094 -0.000000 -0.000000
LeftFoot -11.595859 17.578707 -8.577682
LeftToeBase 6.986991 -0.000000 -0.000000
RightUpLeg -41.588048 -16.669208 -2.982823
RightLeg 48.684064 -0.000000 -0.000000
RightFoot -5.904010 -8.354511 25.183047
RightToeBase 2.482670 -0.000000 -0.000000
